grf
version=1
nRows=19
nColumns=37
inDegrees=no
endheader
time	ground_force_1_vx	ground_force_1_vy	ground_force_1_vz	ground_force_1_px	ground_force_1_py	ground_force_1_pz	ground_moment_1_mx	ground_moment_1_my	ground_moment_1_mz	ground_force_2_vx	ground_force_2_vy	ground_force_2_vz	ground_force_2_px	ground_force_2_py	ground_force_2_pz	ground_moment_2_mx	ground_moment_2_my	ground_moment_2_mz	ground_force_3_vx	ground_force_3_vy	ground_force_3_vz	ground_force_3_px	ground_force_3_py	ground_force_3_pz	ground_moment_3_mx	ground_moment_3_my	ground_moment_3_mz	ground_force_4_vx	ground_force_4_vy	ground_force_4_vz	ground_force_4_px	ground_force_4_py	ground_force_4_pz	ground_moment_4_mx	ground_moment_4_my	ground_moment_4_mz
      0.00000000	      0.00000000	     -0.00000000	      0.00000000	      0.00000000	      0.00000000	      0.00000000	      0.00000000	      0.00000000	      0.00000000	     -0.29774696	     17.46955872	   -215.01684570	   -295.54700815	   -971.55542069	      0.00000000	      0.00000000	      0.00000000	    663.68737041	      1.78180787	      1.05986007	   -536.83551025	   -335.11430185	   -796.42955300	      0.00000000	      0.00000000	     -0.00000000	  -1037.04147481	      0.00000000	     -0.00000000	      0.00000000	      0.00000000	      0.00000000	      0.00000000	      0.00000000	      0.00000000	      0.00000000
      0.01000000	      0.00000000	     -0.00000000	      0.00000000	      0.00000000	      0.00000000	      0.00000000	      0.00000000	      0.00000000	      0.00000000	      0.68994045	     18.07550812	   -218.87756348	   -297.87265699	   -973.35697152	      0.00000000	      0.00000000	      0.00000000	    922.84693126	      2.21776979	      1.86183266	   -532.04077148	   -335.92505925	   -797.41988793	      0.00000000	      0.00000000	     -0.00000000	   -841.87061673	      0.00000000	     -0.00000000	      0.00000000	      0.00000000	      0.00000000	      0.00000000	      0.00000000	      0.00000000	      0.00000000
      0.02000000	      0.00000000	     -0.00000000	      0.00000000	      0.00000000	      0.00000000	      0.00000000	      0.00000000	      0.00000000	      0.00000000	      1.24894714	     18.60988998	   -219.93762207	   -297.23313939	   -972.88796206	      0.00000000	      0.00000000	      0.00000000	    813.98623818	      2.92087955	      2.15405963	   -530.99176025	   -335.15643605	   -797.73500092	      0.00000000	      0.00000000	     -0.00000000	   -939.53763678	      0.00000000	     -0.00000000	      0.00000000	      0.00000000	      0.00000000	      0.00000000	      0.00000000	      0.00000000	      0.00000000
      0.03000000	      0.00000000	     -0.00000000	      0.00000000	      0.00000000	      0.00000000	      0.00000000	      0.00000000	      0.00000000	      0.00000000	      1.99086213	     19.38823128	   -220.96009827	   -296.93508961	   -974.91272496	      0.00000000	      0.00000000	      0.00000000	    793.84704818	      3.01007385	      2.10218952	   -533.78350830	   -334.93288194	   -797.16221884	      0.00000000	      0.00000000	     -0.00000000	   -947.13498579	      0.00000000	     -0.00000000	      0.00000000	      0.00000000	      0.00000000	      0.00000000	      0.00000000	      0.00000000	      0.00000000
      0.04000000	      0.00000000	     -0.00000000	      0.00000000	      0.00000000	      0.00000000	      0.00000000	      0.00000000	      0.00000000	      0.00000000	      2.85473633	     19.38801193	   -218.98860168	   -296.34393930	   -972.45115237	      0.00000000	      0.00000000	      0.00000000	    943.33458660	      1.75062416	      2.47863873	   -535.59863281	   -334.05294651	   -797.74039410	      0.00000000	      0.00000000	     -0.00000000	   -736.12885481	      0.00000000	     -0.00000000	      0.00000000	      0.00000000	      0.00000000	      0.00000000	      0.00000000	      0.00000000	      0.00000000
      0.05000000	      0.00000000	     -0.00000000	      0.00000000	      0.00000000	      0.00000000	      0.00000000	      0.00000000	      0.00000000	      0.00000000	      2.74226880	     19.32187462	   -216.57626343	   -294.29794987	   -975.87485083	      0.00000000	      0.00000000	      0.00000000	    620.74525069	      1.11147145	      1.81831970	   -537.60113525	   -333.24915958	   -799.11230279	      0.00000000	      0.00000000	     -0.00000000	   -724.18831072	      0.00000000	     -0.00000000	      0.00000000	      0.00000000	      0.00000000	      0.00000000	      0.00000000	      0.00000000	      0.00000000
      0.06000000	      0.00000000	     -0.00000000	      0.00000000	      0.00000000	      0.00000000	      0.00000000	      0.00000000	      0.00000000	      0.00000000	      2.71927953	     19.45352936	   -210.56079102	   -292.50823345	   -976.31237152	      0.00000000	      0.00000000	      0.00000000	    828.70123457	      0.68634857	      2.20342153	   -543.44531250	   -332.85405073	   -799.07393224	      0.00000000	      0.00000000	     -0.00000000	   -419.06752363	      0.00000000	     -0.00000000	      0.00000000	      0.00000000	      0.00000000	      0.00000000	      0.00000000	      0.00000000	      0.00000000
      0.07000000	      0.00000000	     -0.00000000	      0.00000000	      0.00000000	      0.00000000	      0.00000000	      0.00000000	      0.00000000	      0.00000000	      2.20726109	     18.96179390	   -203.23844910	   -290.01143697	   -976.59026866	      0.00000000	      0.00000000	      0.00000000	    899.04901635	      0.52810764	      1.98516841	   -553.33032227	   -331.73073070	   -798.38590094	      0.00000000	      0.00000000	     -0.00000000	   -483.84658381	      0.00000000	     -0.00000000	      0.00000000	      0.00000000	      0.00000000	      0.00000000	      0.00000000	      0.00000000	      0.00000000
      0.08000000	      0.00000000	     -0.00000000	      0.00000000	      0.00000000	      0.00000000	      0.00000000	      0.00000000	      0.00000000	      0.00000000	      1.20552051	     18.28989410	   -192.93620300	   -289.19836666	   -971.92322916	      0.00000000	      0.00000000	      0.00000000	    719.33821595	      1.06080857	      1.67440727	   -563.43975830	   -331.18538112	   -799.03525943	      0.00000000	      0.00000000	     -0.00000000	   -546.44805143	      0.00000000	     -0.00000000	      0.00000000	      0.00000000	      0.00000000	      0.00000000	      0.00000000	      0.00000000	      0.00000000
      0.09000000	      0.00000000	     -0.00000000	      0.00000000	      0.00000000	      0.00000000	      0.00000000	      0.00000000	      0.00000000	      0.00000000	      0.89210510	     16.97840691	   -182.93238831	   -285.54386868	   -973.47702374	      0.00000000	      0.00000000	      0.00000000	    814.79596950	      1.61978132	      2.05428491	   -576.35888672	   -331.38375931	   -798.55129967	      0.00000000	      0.00000000	     -0.00000000	   -431.41720036	      0.00000000	     -0.00000000	      0.00000000	      0.00000000	      0.00000000	      0.00000000	      0.00000000	      0.00000000	      0.00000000
      0.10000000	      0.00000000	     -0.00000000	      0.00000000	      0.00000000	      0.00000000	      0.00000000	      0.00000000	      0.00000000	      0.00000000	      0.00000000	     15.37699604	   -173.14778137	   -280.66092421	   -977.91739236	      0.00000000	      0.00000000	      0.00000000	    549.16284208	      2.24332925	      2.33917765	   -589.45788574	   -331.21733972	   -799.47592886	      0.00000000	      0.00000000	     -0.00000000	   -218.86806861	      0.00000000	     -0.00000000	      0.00000000	      0.00000000	      0.00000000	      0.00000000	      0.00000000	      0.00000000	      0.00000000
      0.11000000	      0.00000000	     -0.00000000	      0.00000000	      0.00000000	      0.00000000	      0.00000000	      0.00000000	      0.00000000	      0.00000000	     -1.26976252	     13.77022266	   -159.98715210	   -276.28209052	   -976.38239403	      0.00000000	      0.00000000	      0.00000000	    466.62581108	      2.99787780	      2.36426399	   -603.42346191	   -330.65910731	   -799.16896952	      0.00000000	      0.00000000	     -0.00000000	   -303.73463651	      0.00000000	     -0.00000000	      0.00000000	      0.00000000	      0.00000000	      0.00000000	      0.00000000	      0.00000000	      0.00000000
      0.12000000	      0.00000000	     -0.00000000	      0.00000000	      0.00000000	      0.00000000	      0.00000000	      0.00000000	      0.00000000	      0.00000000	     -2.14023066	     12.23283958	   -146.47772217	   -271.70731504	   -975.27138899	      0.00000000	      0.00000000	      0.00000000	    614.86910015	      3.39541954	      2.07467049	   -621.14074707	   -330.65438067	   -797.97011986	      0.00000000	      0.00000000	     -0.00000000	   -120.92120971	      0.00000000	     -0.00000000	      0.00000000	      0.00000000	      0.00000000	      0.00000000	      0.00000000	      0.00000000	      0.00000000
      0.13000000	      0.00000000	     -0.00000000	      0.00000000	      0.00000000	      0.00000000	      0.00000000	      0.00000000	      0.00000000	      0.00000000	     -2.87709594	     10.13860226	   -132.44247437	   -265.34640836	   -977.89721340	      0.00000000	      0.00000000	      0.00000000	    594.51856455	      4.19060865	      1.65570735	   -634.50213623	   -330.37058493	   -799.27800284	      0.00000000	      0.00000000	     -0.00000000	   -230.96499585	      0.00000000	     -0.00000000	      0.00000000	      0.00000000	      0.00000000	      0.00000000	      0.00000000	      0.00000000	      0.00000000
      0.14000000	      0.00000000	     -0.00000000	      0.00000000	      0.00000000	      0.00000000	      0.00000000	      0.00000000	      0.00000000	      0.00000000	     -3.67978072	      8.24486732	   -118.22758484	   -258.18933185	   -977.34846995	      0.00000000	      0.00000000	      0.00000000	    627.28182892	      4.56899029	      0.70733907	   -650.64556885	   -330.29175721	   -799.23134389	      0.00000000	      0.00000000	     -0.00000000	   -220.93647031	      0.00000000	     -0.00000000	      0.00000000	      0.00000000	      0.00000000	      0.00000000	      0.00000000	      0.00000000	      0.00000000
      0.15000000	      0.00000000	     -0.00000000	      0.00000000	      0.00000000	      0.00000000	      0.00000000	      0.00000000	      0.00000000	      0.00000000	     -4.99688578	      6.79701519	   -102.77536011	   -254.07668103	   -972.56473816	      0.00000000	      0.00000000	      0.00000000	    398.57337266	      5.56653022	     -0.08832217	   -668.27624512	   -329.73046119	   -798.25257046	      0.00000000	      0.00000000	     -0.00000000	   -179.72521010	      0.00000000	     -0.00000000	      0.00000000	      0.00000000	      0.00000000	      0.00000000	      0.00000000	      0.00000000	      0.00000000
      0.16000000	      0.00000000	     -0.00000000	      0.00000000	      0.00000000	      0.00000000	      0.00000000	      0.00000000	      0.00000000	      0.00000000	     -5.55604219	      5.30402613	    -89.08811951	   -248.82934682	   -973.90071233	      0.00000000	      0.00000000	      0.00000000	    424.76860741	      6.20975487	     -0.81708849	   -684.07519531	   -329.04988815	   -797.78733010	      0.00000000	      0.00000000	     -0.00000000	   -258.49279437	      0.00000000	     -0.00000000	      0.00000000	      0.00000000	      0.00000000	      0.00000000	      0.00000000	      0.00000000	      0.00000000
      0.17000000	      0.00000000	     -0.00000000	      0.00000000	      0.00000000	      0.00000000	      0.00000000	      0.00000000	      0.00000000	      0.00000000	     -5.54880428	      4.09797812	    -77.69958496	   -239.30669976	   -973.82229955	      0.00000000	      0.00000000	      0.00000000	    712.72819611	      6.38717644	     -0.79489573	   -697.33990479	   -328.49873958	   -798.35403577	      0.00000000	      0.00000000	     -0.00000000	   -270.75890740	      0.00000000	     -0.00000000	      0.00000000	      0.00000000	      0.00000000	      0.00000000	      0.00000000	      0.00000000	      0.00000000
      0.18000000	      0.00000000	     -0.00000000	      0.00000000	      0.00000000	      0.00000000	      0.00000000	      0.00000000	      0.00000000	      0.00000000	     -6.69078827	      2.98459101	    -64.63192749	   -228.93626252	   -964.35044118	      0.00000000	      0.00000000	      0.00000000	    333.04775311	      7.09686272	     -0.83847615	   -711.48022461	   -328.54604357	   -798.29202595	      0.00000000	      0.00000000	     -0.00000000	   -540.37346386	      0.00000000	     -0.00000000	      0.00000000	      0.00000000	      0.00000000	      0.00000000	      0.00000000	      0.00000000	      0.00000000
